<?xml version="1.0" encoding="UTF-8"?>
<svg width="64" height="64" viewBox="0 0 64 64" fill="none" xmlns="http://www.w3.org/2000/svg">
    <path d="M32 8C18.7452 8 8 18.7452 8 32C8 45.2548 18.7452 56 32 56C45.2548 56 56 45.2548 56 32C56 18.7452 45.2548 8 32 8ZM32 48C22.0589 48 14 39.9411 14 30C14 20.0589 22.0589 12 32 12C41.9411 12 50 20.0589 50 30C50 39.9411 41.9411 48 32 48Z" fill="#3498db"/>
    <path d="M32 8C18.7452 8 8 18.7452 8 32C8 45.2548 18.7452 56 32 56C45.2548 56 56 45.2548 56 32C56 18.7452 45.2548 8 32 8ZM32 48C22.0589 48 14 39.9411 14 30C14 20.0589 22.0589 12 32 12C41.9411 12 50 20.0589 50 30C50 39.9411 41.9411 48 32 48Z" fill="#3498db" fill-opacity="0.2"/>
    <path d="M32 8C18.7452 8 8 18.7452 8 32C8 45.2548 18.7452 56 32 56C45.2548 56 56 45.2548 56 32C56 18.7452 45.2548 8 32 8ZM32 48C22.0589 48 14 39.9411 14 30C14 20.0589 22.0589 12 32 12C41.9411 12 50 20.0589 50 30C50 39.9411 41.9411 48 32 48Z" fill="#3498db" fill-opacity="0.4"/>
    <path d="M32 8C18.7452 8 8 18.7452 8 32C8 45.2548 18.7452 56 32 56C45.2548 56 56 45.2548 56 32C56 18.7452 45.2548 8 32 8ZM32 48C22.0589 48 14 39.9411 14 30C14 20.0589 22.0589 12 32 12C41.9411 12 50 20.0589 50 30C50 39.9411 41.9411 48 32 48Z" fill="#3498db" fill-opacity="0.6"/>
    <path d="M32 8C18.7452 8 8 18.7452 8 32C8 45.2548 18.7452 56 32 56C45.2548 56 56 45.2548 56 32C56 18.7452 45.2548 8 32 8ZM32 48C22.0589 48 14 39.9411 14 30C14 20.0589 22.0589 12 32 12C41.9411 12 50 20.0589 50 30C50 39.9411 41.9411 48 32 48Z" fill="#3498db" fill-opacity="0.8"/>
</svg> 